<svg xmlns="http://www.w3.org/2000/svg" viewBox="0 0 48 48"><g><path d="M27,15h-6c-0.6,0-1-0.4-1-1V8c0-0.6,0.4-1,1-1h6c0.6,0,1,0.4,1,1v6C28,14.6,27.6,15,27,15z M22,13h4V9h-4V13z"/><path d="M24,9c-0.6,0-1-0.4-1-1V6c0-0.6,0.4-1,1-1s1,0.4,1,1v2C25,8.6,24.6,9,24,9z"/><path d="M31,43c-0.4,0-0.7-0.2-0.9-0.6C29.2,40.6,26.5,38,24,38c-2.5,0-5.2,2.6-6.1,4.4c-0.2,0.5-0.8,0.7-1.3,0.4c-0.5-0.2-0.7-0.8-0.4-1.3c1.1-2.2,4.4-5.6,7.9-5.6s6.8,3.3,7.9,5.6c0.2,0.5,0,1.1-0.4,1.3C31.3,43,31.2,43,31,43z"/><path d="M26,33h-4c-0.6,0-1-0.4-1-1s0.4-1,1-1h4c0.6,0,1,0.4,1,1S26.6,33,26,33z"/><path d="M26,25h-4c-0.6,0-1-0.4-1-1s0.4-1,1-1h4c0.6,0,1,0.4,1,1S26.6,25,26,25z"/><path d="M15,43c-0.6,0-1-0.4-1-1s0.4-1,1-1c2.9,0,6-8.2,6-16V14c0-0.6,0.4-1,1-1s1,0.4,1,1v11C23,33.5,19.7,43,15,43z"/><path d="M33,43c-4.7,0-8-9.5-8-18V14c0-0.6,0.4-1,1-1s1,0.4,1,1v11c0,7.8,3.1,16,6,16c0.6,0,1,0.4,1,1S33.6,43,33,43z"/><path d="M35,43h-6c-0.6,0-1-0.4-1-1s0.4-1,1-1h6c0.6,0,1,0.4,1,1S35.6,43,35,43z"/><path d="M19,43h-6c-0.6,0-1-0.4-1-1s0.4-1,1-1h6c0.6,0,1,0.4,1,1S19.6,43,19,43z"/></g></svg>
