<svg xmlns="http://www.w3.org/2000/svg" viewBox="-5 -10 110 110"><path d="m97.223 79.168c0 0.36719-0.14844 0.71875-0.40625 0.98047-0.26172 0.26172-0.61328 0.40625-0.98438 0.40625-1.7891-0.046876-3.5586 0.38281-5.125 1.25-3.9805 2.043-8.6992 2.043-12.68 0-3.2109-1.668-7.0352-1.668-10.25 0-3.9766 2.0391-8.6914 2.0391-12.668 0-1.5625-0.86328-3.3242-1.293-5.1094-1.25-1.7891-0.046876-3.5586 0.38672-5.125 1.25-1.9453 1.0547-4.1328 1.582-6.3477 1.5273-2.207 0.054688-4.3906-0.47266-6.332-1.5273-1.5664-0.86719-3.3359-1.3008-5.125-1.25-1.7852-0.046876-3.5508 0.38281-5.1133 1.25-1.9414 1.0508-4.125 1.5781-6.332 1.5273-2.207 0.054688-4.3906-0.47266-6.332-1.5273-1.5664-0.86328-3.3359-1.2969-5.125-1.25-0.76953 0-1.3906-0.62109-1.3906-1.3867 0-0.76953 0.62109-1.3906 1.3906-1.3906 2.207-0.050782 4.3906 0.47656 6.332 1.5273 1.5664 0.86719 3.3359 1.3008 5.125 1.25 1.7852 0.050781 3.5508-0.38281 5.1094-1.25 1.9453-1.0508 4.1289-1.5781 6.3359-1.5273 2.207-0.054688 4.3906 0.47266 6.332 1.5273 1.5664 0.86719 3.3359 1.2969 5.125 1.25 1.7891 0.046874 3.5586-0.38281 5.125-1.25 1.9453-1.0547 4.1367-1.582 6.3477-1.5273 2.207-0.050782 4.3906 0.47656 6.332 1.5273 3.2148 1.6719 7.0391 1.6719 10.25 0 3.9766-2.0352 8.6914-2.0352 12.668 0 3.2148 1.6758 7.0469 1.6758 10.266 0 1.9375-1.0508 4.1133-1.5742 6.3164-1.5273 0.37109 0 0.72266 0.14844 0.98438 0.40625 0.25781 0.26172 0.40625 0.61328 0.40625 0.98438z"/></svg>
