<svg xmlns="http://www.w3.org/2000/svg" width="440.88721mm" height="168.95612mm" viewBox="0 0 440.88721 168.95612" version="1.1" id="svg5" xml:space="preserve"><defs id="defs2" /><g id="layer1"><path style="fill:#000000" d="m 255.67109999999957 168.57999999999993 c -32.485,-0.304 -32.632,-0.31 -32.632,-1.39 0,-1.383 0.802,-1.413 36.065,-1.31 32.781,0.1 34.215,0.127 34.671,0.752 0.49,0.669 0.338,1.618 -0.331,2.077 -0.208,0.142 -1.966,0.236 -3.906,0.207 -1.941,-0.03 -17.181,-0.18 -33.867,-0.336 z m 54.592,0.165 c -0.561,-0.226 -0.572,-1.61 -0.02,-2.165 0.73,-0.73 94.598,-0.601 95.33,0.131 0.608,0.608 0.661,0.874 0.341,1.71 -0.194,0.505 -4.71,0.555 -47.714,0.53 -26.124,-0.01 -47.697,-0.108 -47.94,-0.206 z m -124.089,-0.49 c -6.403,-0.13 -12.327,-0.259 -13.164,-0.286 -1.495,-0.05 -1.519,-0.07 -1.411,-1.195 l 0.111,-1.147 15.739,-0.09 c 18.11,-0.106 20.54,0.04 20.712,1.257 0.289,2.039 1.717,1.944 -21.987,1.462 z m -73.731,-0.394 c -9.664,-0.167 -17.636,-0.45 -18.08,-0.641 -0.913,-0.394 -1.06,-1.591 -0.235,-1.908 0.956,-0.367 37.065,-0.243 38.048,0.13 1.757,0.669 0.625,2.887 -1.416,2.774 -0.567,-0.03 -8.809,-0.191 -18.317,-0.355 z m 42.946,0.07 c -9.885,-0.198 -11.093,-0.285 -11.642,-0.842 -1.473,-1.494 -0.268,-1.636 13.919,-1.636 h 13.162 v 1.411 1.411 l -2.205,-0.06 c -1.213,-0.03 -7.168,-0.161 -13.234,-0.282 z m -79.267,-0.397 c -8.751,-0.3 -9.535,-0.394 -9.839,-1.186 -0.542,-1.414 0.51,-1.602 8.703,-1.559 10.415,0.06 12.376,0.25 12.518,1.247 0.133,0.935 -1.138,1.909 -2.391,1.831 -0.491,-0.03 -4.537,-0.18 -8.991,-0.333 z m -68.277,-4.62 c -5.565,-5.892 -8.409,-11.649 -7.752,-15.69 0.913,-5.608 9.591,-31.512 16.172,-48.27 1.927,-4.908 2.03,-5.31 1.415,-5.544 -0.909,-0.348 -0.836,-1.013 0.374,-3.409 2.58,-5.112 2.823,-5.196 16.416,-5.693 5.816,-0.213 10.606,-0.419 10.645,-0.457 0.229,-0.23 3.303,-8.535 3.811,-10.297 1.724,-5.982 2.642,-6.47 12.962,-6.888 4.328,-0.176 9.635,-0.419 11.793,-0.54 l 3.925,-0.22 0.163,-2.55 c 0.266,-4.134 2.204,-6.987 5.835,-8.589 1.059,-0.468 2.845,-0.612 8.97,-0.722 l 7.648,-0.138 1.569,-4.287 c 0.863,-2.359 2.733,-7.571 4.155,-11.585 l 2.587,-7.297 2.484,-0.196 c 1.366,-0.108 5.501,-0.435 9.187,-0.728 14.762,-1.171 24.896,-1.553 26.902,-1.016 0.651,0.175 0.987,0.834 1.839,3.611 1.034,3.371 7.902,26.334 8.534,28.534 0.329,1.145 0.331,1.146 2.694,1.153 3.632,0.01 36.583,-1.391 39.644,-1.686 l 2.707,-0.261 -3.148,-5.048 c -1.731,-2.776 -3.148,-5.185 -3.148,-5.354 0,-0.349 2.018,-0.594 7.507,-0.912 l 3.803,-0.221 0.732,-1.464 c 2.312,-4.625 5.049,-9.388 5.492,-9.558 0.281,-0.108 4.746,-0.612 9.921,-1.12 5.176,-0.509 9.434,-0.946 9.464,-0.971 0.03,-0.03 -0.328,-1.872 -0.794,-4.104 -0.466,-2.231 -1.335,-6.674 -1.93,-9.873 -0.596,-3.198 -1.164,-5.897 -1.264,-5.997 -0.1,-0.1 -3.779,-0.26 -8.177,-0.357 l -7.997,-0.177 v -1.058 -1.058 l 7.849,-0.09 7.849,-0.1 v -5.285 -5.285 h -1.234 c -1.137,0 -1.235,-0.08 -1.235,-1.058 v -1.059 h 3.881 3.88 v 1.059 c 0,0.974 -0.1,1.058 -1.235,1.058 h -1.234 v 5.292 5.291 h 3.825 c 2.104,0 5.755,0.104 8.114,0.231 l 4.288,0.23 v -3.405 c 0,-3.398 0,-3.406 -0.882,-3.406 -0.744,0 -0.881,-0.164 -0.881,-1.058 v -1.058 h 3.154 c 1.735,0 3.235,0.131 3.334,0.291 0.424,0.686 -0.239,1.825 -1.062,1.825 -0.829,0 -0.84,0.05 -0.84,3.476 v 3.477 l 4.145,0.316 c 3.804,0.29 4.145,0.374 4.145,1.021 0,0.685 -0.267,0.709 -8.908,0.8 -4.899,0.05 -8.907,0.148 -8.907,0.213 0,0.07 1.84,4.229 4.089,9.254 2.249,5.025 4.171,9.335 4.271,9.577 0.136,0.331 1.833,0.442 6.759,0.446 5.788,0 15.682,0.549 23.154,1.275 2.959,0.287 2.999,0.323 7.166,6.422 3.379,4.947 2.473,4.53 10.476,4.819 6.28,0.227 6.985,0.402 8.39,2.075 1.385,1.65 2.057,3.488 2.314,6.328 l 0.261,2.889 5.683,8.497 5.684,8.497 9.753,0.231 c 5.365,0.127 10.04,0.384 10.39,0.571 0.516,0.276 7.284,10.494 10.567,15.953 1.052,1.749 1.559,1.811 14.691,1.802 15.777,-0.01 20.769,-0.515 49.62,-5.006 6.336,-0.987 11.614,-1.794 11.73,-1.794 0.115,0 0.21,-5.539 0.21,-12.309 v -12.309 l -3.969,-0.139 c -3.445,-0.121 -4.262,-0.273 -6.19,-1.153 l -2.222,-1.013 2.47,-0.782 c 2.974,-0.944 4.45,-2.129 7.775,-6.244 l 2.489,-3.082 v -2.228 c 0,-2.803 0.704,-3.73 1.915,-2.52 0.491,0.491 0.554,2.878 0.554,20.944 v 20.389 l 3.986,-0.176 c 4.489,-0.198 5.593,0.127 6.963,2.051 1.835,2.577 0.762,6.035 -2.95,9.507 -29.098,27.222 -48.376,45.906 -55.095,53.4 l -4.939,5.509 h -20.813 c -11.448,0 -94.526,0 -184.618,0 -156.31,0 -163.799,0.02 -163.684,0.613 0.114,0.593 8.56,0.632 180.913,0.833 168.541,0.196 233.825,0.547 244.823,1.314 13.454,0.938 -66.23,1.474 -253.671,1.706 l -169.886,0.21 -0.329,0.726 c -0.475,1.048 -1.041,1.099 -1.916,0.173 z m 356.196,-13.993 c 9.499,-0.455 9.209,-0.238 24.804,-18.547 4.947,-5.809 10.709,-12.556 12.803,-14.994 5.144,-5.987 5.806,-7.484 4.314,-9.76 -1.281,-1.955 -1.767,-2.002 -18.348,-1.773 -8.346,0.115 -95.042,0.314 -192.658,0.442 l -177.484,0.233 -1.324,3.566 c -0.728,1.962 -2.086,5.725 -3.019,8.363 l -1.696,4.796 184.384,0.255 c 113.052,0.156 184.514,0.382 184.72,0.583 0.211,0.208 0.211,0.446 0,0.647 -0.665,0.63 -99.994,1.203 -233.935,1.349 l -136.232,0.148 -2.647,8 c -2.95,8.916 -4.71,15.495 -4.377,16.363 0.203,0.529 14.142,0.575 177.602,0.589 97.56,0 179.952,-0.109 183.093,-0.26 z m -34.463,-15.394 v -5.468 h 9.172 9.172 v 5.468 5.468 h -9.172 -9.172 z m -267.141,2.738 -2.029,-0.128 v -1.922 -1.923 h 2.117 2.117 v 2.117 c 0,1.164 -0.04,2.086 -0.09,2.05 -0.05,-0.04 -1.001,-0.124 -2.117,-0.194 z m 32.896,-1.856 v -2.151 l 2.205,0.105 2.205,0.105 v 1.941 1.94 l -2.205,0.105 -2.205,0.105 z m 13.406,0 v -2.117 h 1.764 1.764 v 2.117 2.116 h -1.764 -1.764 z m 14.608,1.63 c -0.102,-0.267 -0.137,-1.239 -0.08,-2.161 l 0.109,-1.675 1.676,-0.142 1.676,-0.142 v 2.303 2.303 h -1.599 c -1.032,0 -1.665,-0.172 -1.785,-0.486 z m 12.556,-1.807 v -2.293 h 1.587 1.588 v 2.293 2.293 h -1.588 -1.587 z m 11.642,0 v -2.293 h 1.546 1.547 l 0.242,1.934 c 0.304,2.431 0.156,2.652 -1.769,2.652 h -1.566 z m 10.936,0 v -2.293 h 1.764 1.763 v 2.293 2.293 h -1.763 -1.764 z m 10.936,0 v -2.293 h 1.587 1.588 v 2.293 2.293 h -1.588 -1.587 z m 10.818,2.058 c -0.129,-0.129 -0.235,-1.161 -0.235,-2.293 v -2.058 h 1.764 1.764 v 2.293 2.293 h -1.529 c -0.841,0 -1.634,-0.106 -1.764,-0.235 z m 10.348,-2.058 v -2.293 h 1.764 1.764 v 1.735 c 0,2.579 -0.189,2.851 -1.978,2.851 h -1.55 z m 11.289,0 v -2.293 h 1.588 1.587 v 2.293 2.293 h -1.587 -1.588 z m -183.444,-0.02 v -1.958 l 2.005,0.105 2.005,0.106 0.138,1.852 0.138,1.852 h -2.143 -2.143 z m 14.534,0.105 0.106,-1.852 1.852,-0.106 1.852,-0.107 v 1.959 1.958 h -1.958 -1.959 z m 14.394,-0.09 v -1.94 h 2.116 2.117 v 1.94 1.94 h -2.117 -2.116 z m 26.105,0 v -1.94 h 2.117 2.117 v 1.94 1.94 h -2.117 -2.117 z m 10.584,0 v -1.94 h 1.94 1.94 v 1.382 c 0,0.76 0.1,1.634 0.214,1.94 0.181,0.472 -0.12,0.558 -1.94,0.558 h -2.154 z" id="path91" /></g></svg>
